<mxfile host="Electron" modified="2023-10-18T06:17:15.464Z" agent="Mozilla/5.0 (Windows NT 10.0; Win64; x64) AppleWebKit/537.36 (KHTML, like Gecko) draw.io/22.0.2 Chrome/114.0.5735.289 Electron/25.8.4 Safari/537.36" etag="1LuquIK-X4dpTZmtvz7O" version="22.0.2" type="device">
  <diagram id="C5RBs43oDa-KdzZeNtuy" name="Page-1">
    <mxGraphModel dx="1098" dy="556" grid="1" gridSize="10" guides="1" tooltips="1" connect="1" arrows="1" fold="1" page="1" pageScale="1" pageWidth="827" pageHeight="1169" math="0" shadow="0">
      <root>
        <mxCell id="WIyWlLk6GJQsqaUBKTNV-0" />
        <mxCell id="WIyWlLk6GJQsqaUBKTNV-1" parent="WIyWlLk6GJQsqaUBKTNV-0" />
        <mxCell id="H2XG3pRgOStRxVBQ-2Jp-0" value="&lt;font style=&quot;font-size: 14px;&quot;&gt;A 클래스&lt;/font&gt;" style="rounded=0;whiteSpace=wrap;html=1;fillColor=#bac8d3;strokeColor=#23445d;" vertex="1" parent="WIyWlLk6GJQsqaUBKTNV-1">
          <mxGeometry x="110" y="70" width="120" height="60" as="geometry" />
        </mxCell>
        <mxCell id="H2XG3pRgOStRxVBQ-2Jp-1" value="&lt;font style=&quot;font-size: 14px;&quot;&gt;B 클래스&lt;/font&gt;" style="rounded=0;whiteSpace=wrap;html=1;fillColor=#bac8d3;strokeColor=#23445d;" vertex="1" parent="WIyWlLk6GJQsqaUBKTNV-1">
          <mxGeometry x="110" y="230" width="120" height="60" as="geometry" />
        </mxCell>
        <mxCell id="H2XG3pRgOStRxVBQ-2Jp-2" value="" style="endArrow=block;html=1;rounded=0;strokeWidth=2;endFill=0;entryX=0.5;entryY=1;entryDx=0;entryDy=0;" edge="1" parent="WIyWlLk6GJQsqaUBKTNV-1" target="H2XG3pRgOStRxVBQ-2Jp-0">
          <mxGeometry width="50" height="50" relative="1" as="geometry">
            <mxPoint x="170" y="230" as="sourcePoint" />
            <mxPoint x="220" y="180" as="targetPoint" />
          </mxGeometry>
        </mxCell>
        <mxCell id="H2XG3pRgOStRxVBQ-2Jp-3" value="상위 클래스" style="shape=callout;whiteSpace=wrap;html=1;perimeter=calloutPerimeter;size=30;position=0.25;position2=0.56;" vertex="1" parent="WIyWlLk6GJQsqaUBKTNV-1">
          <mxGeometry x="60" y="40" width="90" height="50" as="geometry" />
        </mxCell>
        <mxCell id="H2XG3pRgOStRxVBQ-2Jp-4" value="하위 클래스" style="shape=callout;whiteSpace=wrap;html=1;perimeter=calloutPerimeter;size=30;position=0.25;position2=0.56;" vertex="1" parent="WIyWlLk6GJQsqaUBKTNV-1">
          <mxGeometry x="60" y="200" width="90" height="50" as="geometry" />
        </mxCell>
        <mxCell id="H2XG3pRgOStRxVBQ-2Jp-5" value="" style="endArrow=none;html=1;rounded=0;" edge="1" parent="WIyWlLk6GJQsqaUBKTNV-1">
          <mxGeometry width="50" height="50" relative="1" as="geometry">
            <mxPoint x="170" y="180" as="sourcePoint" />
            <mxPoint x="280" y="180" as="targetPoint" />
          </mxGeometry>
        </mxCell>
        <mxCell id="H2XG3pRgOStRxVBQ-2Jp-7" value="A 클래스가 B 클래스에게 상속 한다.&lt;br&gt;&lt;br&gt;=&lt;br&gt;&lt;br&gt;B 클래스가 A 클래스를&lt;br&gt;상속 받는다" style="rounded=0;whiteSpace=wrap;html=1;rotation=0;dashed=1;" vertex="1" parent="WIyWlLk6GJQsqaUBKTNV-1">
          <mxGeometry x="280" y="70" width="140" height="250" as="geometry" />
        </mxCell>
      </root>
    </mxGraphModel>
  </diagram>
</mxfile>
